<svg xmlns="http://www.w3.org/2000/svg" viewBox="0 0 24 24" fill="currentColor"><path d="M12 2c2.72 0 3.05.01 4.12.06c1.06.05 1.79.22 2.42.47c.65.25 1.13.59 1.62 1.08c.49.49.83.97 1.08 1.62c.25.63.42 1.36.47 2.42c.05 1.07.06 1.4.06 4.12s-.01 3.05-.06 4.12c-.05 1.06-.22 1.79-.47 2.42c-.25.65-.59 1.13-1.08 1.62c-.49.49-.97.83-1.62 1.08c-.63.25-1.36.42-2.42.47c-1.07.05-1.4.06-4.12.06s-3.05-.01-4.12-.06c-1.06-.05-1.79-.22-2.42-.47c-.65-.25-1.13-.59-1.62-1.08c-.49-.49-.83-.97-1.08-1.62c-.25-.63-.42-1.36-.47-2.42c-.05-1.07-.06-1.4-.06-4.12s.01-3.05.06-4.12c.05-1.06.22-1.79.47-2.42c.25-.65.59-1.13 1.08-1.62c.49-.49.97-.83 1.62-1.08c.63-.25 1.36-.42 2.42-.47c1.07-.05 1.4-.06 4.12-.06zm0 2.16c-2.67 0-2.98.01-4.04.06c-.99.04-1.5.21-1.84.35c-.42.17-.71.39-.99.67c-.28.28-.5.57-.67.99c-.14.34-.31.85-.35 1.84c-.05 1.06-.06 1.37-.06 4.04s.01 2.98.06 4.04c.04.99.21 1.5.35 1.84c.17.42.39.71.67.99c.28.28.57.5.99.67c.34.14.85.31 1.84.35c1.06.05 1.37.06 4.04.06s2.98-.01 4.04-.06c.99-.04 1.5-.21 1.84-.35c.42-.17.71-.39.99-.67c.28-.28.5-.57.67-.99c.14-.34.31-.85.35-1.84c.05-1.06.06-1.37.06-4.04s-.01-2.98-.06-4.04c-.04-.99-.21-1.5-.35-1.84c-.17-.42-.39-.71-.67-.99c-.28-.28-.57-.5-.99-.67c-.34-.14-.85-.31-1.84-.35c-1.06-.05-1.37-.06-4.04-.06zM12 6.88c-2.83 0-5.12 2.29-5.12 5.12s2.29 5.12 5.12 5.12s5.12-2.29 5.12-5.12s-2.29-5.12-5.12-5.12zm0 8.24c-1.72 0-3.12-1.4-3.12-3.12s1.4-3.12 3.12-3.12s3.12 1.4 3.12 3.12s-1.4 3.12-3.12 3.12zm4.62-8.4c-.66 0-1.2.54-1.2 1.2s.54 1.2 1.2 1.2s1.2-.54 1.2-1.2s-.54-1.2-1.2-1.2z"/></svg>