<svg xmlns="http://www.w3.org/2000/svg" viewBox="0 0 512 512" fill="currentColor">
  <path d="M444 49.9C431.3 38.2 379.9 .9 265.3 .4c0 0-135.1-8.1-200.9 52.3C27.8 89.3 14.9 143 13.5 209.5c-1.4 66.5-3.1 191.1 117 224.9h.1l-.1 51.6s-.8 20.9 13 25.1c16.6 5.2 26.4-10.7 42.3-27.8 8.7-9.4 20.4-23.2 29.4-33.8 11.4 2.9 25.3 5.3 40.6 6.9 32.7 3.5 61.8 7.4 92.3-13.3 50.3-34.1 82.2-111.2 95.5-162.7 16.7-64.7 10.8-176.5-1.5-230.5zm-54.4 266.3c-23.3 22.8-59.5 35.7-113.6 37.4-44.4 1.4-53.6-3.1-61.7-8.2-3.1-2-19.6-14.7-19.6-14.7-4.4-3.5-9.3-5.3-14.4-5.3-4.4 0-8.7 1.4-12.3 4l-14.3 10.1c-14.9 10.5-28.7 20.3-39.7 27.6-6.2 4.1-15.6 11.3-26.6 6-11.4-5.5-12.7-21.3-12.7-21.3-3.8-31.5-6.8-63.5-8.5-90.8-2.6-43.1-5.1-84.6-2-111.4 4.1-35.3 22.1-59.1 48.5-63.4 34.6-5.7 75.3-7.5 106.8-7.5 32 0 65.4 1.7 89.2 6.6 35.5 7.4 57.6 27.2 65.5 58.6 10.4 41.5 18.9 92.2 22.8 131.7 4 39.8-3.3 90.7-36.9 123zM250.3 125.7c26.7 1.4 51.6 12.3 70 30.7 18.2 18.2 29.1 42.8 30.5 69.1.5 8.7 7.7 15.6 16.5 15.6 9.1 0 16.5-7.4 16.5-16.5-2-34.3-16.1-66.2-39.8-89.9-23.7-23.7-55.6-37.8-89.9-39.8-9.1-1.1-16.5 6.4-16.5 15.5 0 8.7 6.9 15.9 15.6 16.5zm-16.3 32.5c17.9 1.4 34.6 9 47 21.4 12.3 12.3 19.8 28.9 21.2 46.7.5 8.7 7.9 15.6 16.6 15.6 9.1 0 16.5-7.4 16.5-16.5-1.9-24.9-12.2-48-28.9-64.7-16.7-16.7-39.8-27-64.7-28.9-9.1-.5-16.5 6.9-16.5 16 0 8.8 7 16 15.9 16.5zm-26.6 47.9c1.9 14.8-5.3 23-14.8 29.3l-16.1 10.7c-4.8 3.2-11.2 2-14.4-2.7-3.5-5.1-6.4-10.4-8.8-15.9-6-13.8-9.7-28.6-11.1-43.9-1.2-13.3 1.1-25.5 6.8-35.1 4.5-7.6 11.1-13.6 19.1-17.1 6.1-2.7 12.9-2.3 18.7 1.1l15.9 9.3c5.6 3.3 8.8 9.5 8.2 15.9l-2.4 24.6c-.6 6.3 2 12.6 6.9 16.7l5.9 5c6.2 5.1 15.2 4.6 20.8-1.1l11.4-11.6c4.6-4.7 11.9-5.3 17.1-1.4l16.1 11.9c5.6 4.1 7.7 11.6 5 18.1l-10.7 26.2c-2.7 6.6-9.1 11.2-16.2 12.1-12.7 1.6-26.1-1.3-38.6-8.2l-3.3-1.8z" />
</svg>