<svg width="90" height="29" viewBox="0 0 90 29" fill="none" xmlns="http://www.w3.org/2000/svg">
<path d="M79.1713 0.489685L79.4581 0.64627L79.4184 0.730367L67.194 26.5202C66.4005 28.1429 65.1551 29 63.5918 29C62.0823 29 60.8173 28.1406 59.934 26.515L47.766 0.646744L48.0568 0.485895C48.927 -0.0179723 49.9781 -0.136181 50.9396 0.160407C51.9343 0.467891 52.7349 1.17169 53.1933 2.142C56.3306 8.5364 61.8785 20.4594 63.5043 23.9613L63.5839 24.1335L73.954 2.22539C74.4384 1.21907 75.2663 0.490396 76.2844 0.17391C77.2586 -0.126231 78.2832 -0.014182 79.1713 0.489685ZM0 4.32957C0 1.9744 1.77909 0.0584251 3.96567 0.0584251H4.26083V24.6904C4.26083 26.983 2.44493 28.9196 0.295399 28.9196H0V4.32957ZM10.2837 14.5641L27.632 27.0213C26.9869 27.9582 25.9683 28.6321 24.874 28.8366C23.9134 29.0154 22.9797 28.8167 22.2469 28.2756L6.73224 16.8153C6.02481 16.2927 5.61541 15.4849 5.61015 14.5992C5.60489 13.7132 6.00426 12.9002 6.70595 12.3688L21.9052 0.85002C22.5514 0.360603 23.3188 0.104761 24.1176 0.104761C24.336 0.104761 24.5561 0.124186 24.7772 0.162799C25.8512 0.35018 26.8256 0.982206 27.475 1.90774C23.1563 5.18655 10.6183 14.3199 10.4917 14.413L10.2837 14.5641ZM39.8164 0.0584725H40.1113V24.6904C40.1113 26.9828 38.2954 28.9194 36.1461 28.9194H35.8505V4.32962C35.8505 1.97445 37.6295 0.0584725 39.8164 0.0584725ZM89.7051 0.0584725H90V24.6904C90 26.9828 88.1841 28.9194 86.0348 28.9194H85.7394V4.32962C85.7394 1.97445 87.5185 0.0584725 89.7051 0.0584725Z" fill="#202020"/>
</svg>
